<?xml version="1.0" encoding="UTF-8"?>
<svg version="1.1" xmlns="http://www.w3.org/2000/svg" width="512" height="512">
<path d="M0 0 C0.66128906 0.49371094 1.32257813 0.98742188 2.00390625 1.49609375 C17.85653043 13.93621566 23.29237406 34.97029609 26 54 C29.2478184 81.67118757 25.19834382 110.03563121 19 137 C19.92296875 137.26039063 20.8459375 137.52078125 21.796875 137.7890625 C24.99037222 138.99636023 26.17820804 139.76818485 28.25 142.375 C28.72953125 142.96023437 29.2090625 143.54546875 29.703125 144.1484375 C34.21490074 150.58994865 33.60211896 157.42397161 33 165 C30.17202667 178.03915847 22.04403903 189.49001838 12 198 C11.15010498 198.43038574 10.30020996 198.86077148 9.42456055 199.30419922 C6.82242735 200.77937236 6.82242735 200.77937236 6.12866211 203.38500977 C6.01272705 204.31112061 5.89679199 205.23723145 5.77734375 206.19140625 C5.55788086 207.73344727 5.55788086 207.73344727 5.33398438 209.30664062 C5.20314453 210.38107422 5.07230469 211.45550781 4.9375 212.5625 C3.56496388 223.23413249 1.60177342 232.31796708 -5.1875 240.9375 C-5.9815625 241.95070313 -6.775625 242.96390625 -7.59375 244.0078125 C-8.3878125 244.99523437 -9.181875 245.98265625 -10 247 C-10.6909375 247.88429688 -11.381875 248.76859375 -12.09375 249.6796875 C-16.54070347 255.27156556 -21.27232452 260.57356104 -26.125 265.8125 C-26.69887451 266.43487549 -27.27274902 267.05725098 -27.86401367 267.69848633 C-28.42709229 268.29943115 -28.9901709 268.90037598 -29.5703125 269.51953125 C-30.06289551 270.04651611 -30.55547852 270.57350098 -31.06298828 271.11645508 C-33 273 -33 273 -34.73649597 274.21090698 C-37.50379963 276.23478788 -39.61528338 277.79404943 -40.68096924 281.13459778 C-40.97496854 283.68545179 -41.04892292 286.1509528 -41.03515625 288.71875 C-41.04896835 289.65368286 -41.06278046 290.58861572 -41.07701111 291.55187988 C-41.09487755 293.52864648 -41.0946169 295.50564958 -41.07739258 297.48242188 C-41.062665 300.46656703 -41.13792907 303.43904403 -41.22070312 306.421875 C-41.35398858 319.65464315 -38.93461332 327.26451247 -30 337 C-29.43539063 337.76570313 -28.87078125 338.53140625 -28.2890625 339.3203125 C-27.13472207 341.11533491 -27.13472207 341.11533491 -25.25390625 341.71875 C-20.92126552 342.25939148 -16.5715879 342.46273985 -12.21484375 342.71875 C-9 343 -9 343 -6 344 C-4.34228296 344.11417904 -2.68085083 344.1780759 -1.01953125 344.2109375 C26.16860676 344.92467032 49.96246825 349.33478725 70 369 C70.639375 369.61488281 71.27875 370.22976563 71.9375 370.86328125 C89.29197741 388.95377444 90.41038616 416.95042524 90.16796875 440.5703125 C90.04800615 445.406236 89.5434674 450.19572316 89 455 C44.95971794 466.53391808 -0.59168513 471.77675276 -46 474 C-47.13399231 474.06195053 -47.13399231 474.06195053 -48.29089355 474.12515259 C-66.35706351 475.10939399 -84.41314858 475.20175099 -102.5 475.1875 C-103.26036686 475.18723312 -104.02073372 475.18696625 -104.804142 475.18669128 C-128.91650982 475.17608498 -152.95280007 474.93477406 -177 473 C-178.23837616 472.90171906 -178.23837616 472.90171906 -179.50177002 472.80145264 C-216.71728389 469.82180055 -253.9777357 465.49024574 -290.28125 456.5078125 C-291.16876953 456.29012207 -292.05628906 456.07243164 -292.97070312 455.84814453 C-293.64037109 455.56825684 -294.31003906 455.28836914 -295 455 C-296.87050798 449.38847605 -296.19738977 443.25087866 -296.1875 437.375 C-296.18656342 436.6702655 -296.18562683 435.96553101 -296.18466187 435.23944092 C-296.11061018 409.65549541 -293.25341326 385.94440878 -274.86328125 366.60546875 C-260.06265304 353.13750284 -238.9617821 345.32382042 -219.05078125 344.71875 C-217.95572266 344.68136719 -216.86066406 344.64398438 -215.73242188 344.60546875 C-213.44076631 344.53479519 -211.14909948 344.46448636 -208.85742188 344.39453125 C-207.76623047 344.35714844 -206.67503906 344.31976563 -205.55078125 344.28125 C-204.55731689 344.25095703 -203.56385254 344.22066406 -202.5402832 344.18945312 C-199.87718289 344.0950585 -199.87718289 344.0950585 -197 343 C-193.74422851 342.72940158 -190.48870817 342.55513711 -187.2265625 342.37890625 C-181.28503851 341.6811728 -178.21744155 339.70582637 -174.39938354 335.23641968 C-166.14743712 324.733261 -164.69104199 315.52065316 -164.875 302.375 C-164.87317719 301.40399353 -164.87135437 300.43298706 -164.86947632 299.43255615 C-164.9556166 287.77826856 -165.89615527 278.32359486 -174.33984375 269.78100586 C-178.20116034 266.33100067 -182.18544301 263.1340023 -186.35498047 260.06494141 C-189.98682738 257.22959332 -192.68067307 254.02233026 -195.375 250.3125 C-195.7872583 249.75941162 -196.1995166 249.20632324 -196.62426758 248.63647461 C-197.76041208 247.09897855 -198.88055364 245.5496962 -200 244 C-200.76570313 243.01773437 -201.53140625 242.03546875 -202.3203125 241.0234375 C-203.39925781 239.61964844 -203.39925781 239.61964844 -204.5 238.1875 C-205.1084375 237.39730469 -205.716875 236.60710937 -206.34375 235.79296875 C-210.389571 228.97041682 -211.62356972 221.44895861 -212.6875 213.6875 C-212.81705078 212.80771484 -212.94660156 211.92792969 -213.08007812 211.02148438 C-213.61772564 207.27501994 -214 203.79915178 -214 200 C-214.680625 199.79375 -215.36125 199.5875 -216.0625 199.375 C-227.66800695 193.94263504 -234.59873626 181.09763891 -239.125 169.65625 C-241.35579241 162.88420161 -241.98769681 156.31168931 -239.9375 149.4375 C-237.0300376 144.27909896 -233.16904442 140.16904442 -229 136 C-228.90975516 134.04369781 -228.90975516 134.04369781 -229.2421875 131.77734375 C-229.33918945 130.86670166 -229.43619141 129.95605957 -229.53613281 129.01782227 C-229.64795898 128.00131592 -229.75978516 126.98480957 -229.875 125.9375 C-231.00780502 113.96842599 -231.23498121 102.07657745 -231.25 90.0625 C-231.25481384 89.20284637 -231.25962769 88.34319275 -231.2645874 87.45748901 C-231.33736314 72.26383421 -230.88303048 56.84682779 -226.75 42.125 C-226.53311523 41.33746338 -226.31623047 40.54992676 -226.09277344 39.73852539 C-222.64803615 27.78117097 -217.16750777 16.45784718 -206.515625 9.33984375 C-202.47542746 7.18799941 -198.97141081 5.92695436 -194.4375 5.375 C-188.85136456 4.34597505 -186.56720368 0.2638472 -183.29296875 -4.05859375 C-168.68427953 -22.79853068 -145.05051008 -31.05489412 -122.38671875 -34.55859375 C-80.28903797 -39.5534891 -32.71305914 -27.40123568 0 0 Z " fill="#F8D6A9" transform="translate(360,36)"/>
<path d="M0 0 C1.45016988 2.25478027 2.49744584 4.25630289 3.5625 6.6875 C4.25618823 8.16865439 4.95435489 9.64771704 5.65625 11.125 C6.03136719 11.9190625 6.40648437 12.713125 6.79296875 13.53125 C8.89631621 17.83324222 11.23973585 22.00116284 13.5625 26.1875 C18.35647197 34.88402512 22.96298787 43.66782873 27.5 52.5 C32.34414474 61.92776276 37.29461786 71.28351539 42.41503906 80.56494141 C49.1936991 92.9099859 55.57224042 105.46983657 62 118 C61.43156455 107.40492404 59.47661842 97.20066828 57.43310547 86.81713867 C57.00730326 84.6412656 56.59294274 82.46344163 56.1796875 80.28515625 C55.92944824 79.00519775 55.67920898 77.72523926 55.42138672 76.40649414 C55.02217267 73.17924411 55.02371608 71.07626687 56 68 C57.99609375 65.5 57.99609375 65.5 60.4375 63 C63.56172487 59.7905234 65.60078288 57.28175732 67 53 C66.2575 52.319375 65.515 51.63875 64.75 50.9375 C61.25969427 47.42730649 58.53374003 43.56703538 57.5078125 38.6328125 C58.2635677 34.590122 61.10466769 32.79603767 64.1875 30.375 C64.76564453 29.89804687 65.34378906 29.42109375 65.93945312 28.9296875 C69.1467401 26.32036928 72.38470509 24.02892257 76 22 C76.89203125 22.75925781 77.7840625 23.51851563 78.703125 24.30078125 C79.88536568 25.30474754 81.06766018 26.30865046 82.25 27.3125 C82.83652344 27.81201172 83.42304688 28.31152344 84.02734375 28.82617188 C86.95626566 31.31081912 89.88855374 33.7434313 93 36 C92.39686522 43.53918472 89.46167045 47.92844887 84 53 C85.72502308 58.36463221 89.04416706 61.16385158 93.1015625 64.9140625 C98.45071503 73.60918699 93.86847474 86.33950027 92 95.8125 C91.56786451 98.02997381 91.13878889 100.24792106 90.71606445 102.46720886 C90.3343611 104.46747126 89.94286667 106.46585805 89.55078125 108.46411133 C89.04414229 111.71661669 88.89380277 114.71641955 89 118 C97.23545548 102.7948067 105.31442737 87.52107802 113.1875 72.125 C118.56265067 61.61543191 124.01160831 51.16518158 129.7175293 40.83007812 C134.69654386 31.79347587 139.44492121 22.63892286 144.1875 13.4765625 C144.67476563 12.54231445 145.16203125 11.60806641 145.6640625 10.64550781 C146.51392272 8.96256092 147.3260588 7.25962369 148.0859375 5.53417969 C150.43253267 0.25199397 150.43253267 0.25199397 153.3046875 -1.0234375 C156.59778392 -0.99480188 159.84047054 -0.88302036 163.125 -0.625 C164.34445312 -0.53476562 165.56390625 -0.44453125 166.8203125 -0.3515625 C170 0 170 0 173 1 C174.65771704 1.11417904 176.31914917 1.1780759 177.98046875 1.2109375 C205.16860676 1.92467032 228.96246825 6.33478725 249 26 C249.639375 26.61488281 250.27875 27.22976563 250.9375 27.86328125 C268.29197741 45.95377444 269.41038616 73.95042524 269.16796875 97.5703125 C269.04800615 102.406236 268.5434674 107.19572316 268 112 C223.95971794 123.53391808 178.40831487 128.77675276 133 131 C131.86600769 131.06195053 131.86600769 131.06195053 130.70910645 131.12515259 C112.64293649 132.10939399 94.58685142 132.20175099 76.5 132.1875 C75.73963314 132.18723312 74.97926628 132.18696625 74.195858 132.18669128 C50.08349018 132.17608498 26.04719993 131.93477406 2 130 C1.17441589 129.93447937 0.34883179 129.86895874 -0.50177002 129.80145264 C-37.71728389 126.82180055 -74.9777357 122.49024574 -111.28125 113.5078125 C-112.16876953 113.29012207 -113.05628906 113.07243164 -113.97070312 112.84814453 C-114.64037109 112.56825684 -115.31003906 112.28836914 -116 112 C-117.87050798 106.38847605 -117.19738977 100.25087866 -117.1875 94.375 C-117.18656342 93.6702655 -117.18562683 92.96553101 -117.18466187 92.23944092 C-117.11061018 66.65549541 -114.25341326 42.94440878 -95.86328125 23.60546875 C-81.06265304 10.13750284 -59.9617821 2.32382042 -40.05078125 1.71875 C-38.95572266 1.68136719 -37.86066406 1.64398438 -36.73242188 1.60546875 C-34.44076631 1.53479519 -32.14909948 1.46448636 -29.85742188 1.39453125 C-28.76623047 1.35714844 -27.67503906 1.31976563 -26.55078125 1.28125 C-25.06058472 1.23581055 -25.06058472 1.23581055 -23.5402832 1.18945312 C-20.87718289 1.0950585 -20.87718289 1.0950585 -18 0 C-15.87970528 -0.25175003 -13.75337252 -0.45453538 -11.625 -0.625 C-10.50351563 -0.72039062 -9.38203125 -0.81578125 -8.2265625 -0.9140625 C-2.60848407 -1.06369655 -2.60848407 -1.06369655 0 0 Z " fill="#44728C" transform="translate(181,379)"/>
<path d="M0 0 C0.66128906 0.49371094 1.32257813 0.98742188 2.00390625 1.49609375 C17.85653043 13.93621566 23.29237406 34.97029609 26 54 C28.88941965 78.61765508 26.06576318 104.22908978 21 128.375 C20.84619873 129.13651367 20.69239746 129.89802734 20.53393555 130.68261719 C20.0625 132.7734375 20.0625 132.7734375 19 136 C16 137 16 137 13.5625 136.75 C10.81669746 136.74905905 10.81669746 136.74905905 8.875 139.0625 C6.80224276 142.30981967 5.40456075 145.41837008 4 149 C3.67 149 3.34 149 3 149 C2.72736328 147.04320312 2.72736328 147.04320312 2.44921875 145.046875 C-0.46987732 120.56038872 -0.46987732 120.56038872 -13 100 C-13 99.34 -13 98.68 -13 98 C-13.66 98 -14.32 98 -15 98 C-15 103.61 -15 109.22 -15 115 C-28.33606941 114.32189478 -39.10531663 108.18585499 -50 101 C-47.93080814 106.66826494 -46.02149842 111.4040018 -42 116 C-42 116.66 -42 117.32 -42 118 C-47.13711186 118.05016334 -52.27407514 118.08607287 -57.41137695 118.10986328 C-59.15196217 118.11980124 -60.89253125 118.13335628 -62.63305664 118.15087891 C-96.1259922 118.47914636 -126.07450295 109.9537375 -150.375 86.125 C-156.17232184 80.28361948 -160.81028678 74.10429632 -165 67 C-165.20753906 67.99257812 -165.41507812 68.98515625 -165.62890625 70.0078125 C-168.98991562 85.18219617 -175.35895208 96.74303635 -185 109 C-186.53008696 111.07654658 -188.05141902 113.15958232 -189.5625 115.25 C-190.22378906 116.16265625 -190.88507813 117.0753125 -191.56640625 118.015625 C-192.03949219 118.67046875 -192.51257813 119.3253125 -193 120 C-193.66 119.67 -194.32 119.34 -195 119 C-195.68939809 116.67328146 -196.35466922 114.33932406 -197 112 C-197.66 111.01 -198.32 110.02 -199 109 C-202.11989549 109.66540692 -202.11989549 109.66540692 -203.16162109 112.08081055 C-204.18396154 115.64054401 -204.3530817 119.03257909 -204.4140625 122.70703125 C-204.43342865 123.43242599 -204.4527948 124.15782074 -204.4727478 124.90519714 C-204.53222108 127.20751422 -204.57879845 129.50988219 -204.625 131.8125 C-204.66320958 133.37957832 -204.70226303 134.94663631 -204.7421875 136.51367188 C-204.83789563 140.34228152 -204.92204448 144.17098942 -205 148 C-205.77085937 147.22140625 -206.54171875 146.4428125 -207.3359375 145.640625 C-212.97098469 139.91147621 -212.97098469 139.91147621 -220.48046875 137.90234375 C-221.37378906 137.91394531 -222.26710937 137.92554688 -223.1875 137.9375 C-224.08855469 137.94652344 -224.98960937 137.95554688 -225.91796875 137.96484375 C-226.60503906 137.97644531 -227.29210937 137.98804688 -228 138 C-234.23359653 125.53280694 -231.21716308 103.88747263 -231.25 90.0625 C-231.25508575 89.20284637 -231.26017151 88.34319275 -231.26541138 87.45748901 C-231.33764295 72.26405645 -230.88294863 56.84653624 -226.75 42.125 C-226.53311523 41.33746338 -226.31623047 40.54992676 -226.09277344 39.73852539 C-222.64803615 27.78117097 -217.16750777 16.45784718 -206.515625 9.33984375 C-202.47542746 7.18799941 -198.97141081 5.92695436 -194.4375 5.375 C-188.85136456 4.34597505 -186.56720368 0.2638472 -183.29296875 -4.05859375 C-168.68427953 -22.79853068 -145.05051008 -31.05489412 -122.38671875 -34.55859375 C-80.28903797 -39.5534891 -32.71305914 -27.40123568 0 0 Z " fill="#240703" transform="translate(360,36)"/>
<path d="M0 0 C27.70507026 -0.64623071 53.61992258 1.88086065 74.6875 21.73046875 C75.450625 22.47941406 76.21375 23.22835938 77 24 C77.639375 24.61488281 78.27875 25.22976563 78.9375 25.86328125 C96.29197741 43.95377444 97.41038616 71.95042524 97.16796875 95.5703125 C97.04800615 100.406236 96.5434674 105.19572316 96 110 C47.30038222 122.75417358 -5.59921685 130.33022595 -56 129 C-51.81440222 123.18666975 -47.27844654 117.76391563 -42.59887695 112.34936523 C-38.74738015 107.88851828 -34.99575622 103.35709099 -31.28125 98.78125 C-28.70157146 95.63616247 -26.07369666 92.53518912 -23.4375 89.4375 C-18.84943654 84.04336042 -14.38263028 78.56305219 -10 73 C-11.65539166 68.74327859 -14.73763729 66.00257093 -17.9375 62.875 C-18.47568359 62.33746094 -19.01386719 61.79992187 -19.56835938 61.24609375 C-21.94709334 58.89375758 -24.20866835 56.86088777 -27 55 C-27 54.34 -27 53.68 -27 53 C-19.08 53 -11.16 53 -3 53 C-3 49.04 -3 45.08 -3 41 C-2.89730428 38.71842098 -2.76927174 36.43758843 -2.59765625 34.16015625 C-2.51193359 32.99419922 -2.42621094 31.82824219 -2.33789062 30.62695312 C-2.24701172 29.45068359 -2.15613281 28.27441406 -2.0625 27.0625 C-1.97548828 25.89009766 -1.88847656 24.71769531 -1.79882812 23.50976562 C-1.53764939 20.00610125 -1.26991221 16.50300162 -1 13 C-0.85667236 11.13190674 -0.85667236 11.13190674 -0.71044922 9.22607422 C-0.47426395 6.15066703 -0.23744729 3.07530996 0 0 Z " fill="#12273F" transform="translate(353,381)"/>
<path d="M0 0 C1.15371094 0.00322266 2.30742187 0.00644531 3.49609375 0.00976562 C4.68589844 0.01814453 5.87570313 0.02652344 7.1015625 0.03515625 C8.92107422 0.04192383 8.92107422 0.04192383 10.77734375 0.04882812 C13.76046757 0.06057271 16.74348929 0.07699785 19.7265625 0.09765625 C20.01672294 5.23449925 20.30127306 10.37161444 20.58105469 15.5090332 C20.67659038 17.24967438 20.77354975 18.99023811 20.87207031 20.73071289 C21.48277573 31.53957558 21.83476538 42.27060569 21.7265625 53.09765625 C29.9765625 53.09765625 38.2265625 53.09765625 46.7265625 53.09765625 C42.38097231 58.16751147 38.16596321 62.71798402 33.25585938 67.17773438 C31.63613217 68.67229598 31.63613217 68.67229598 29.7265625 71.09765625 C30.22864835 75.61923386 33.31292744 78.40227929 36.2265625 81.66015625 C37.3317477 82.92098292 38.43590604 84.1827104 39.5390625 85.4453125 C40.08433594 86.06680176 40.62960938 86.68829102 41.19140625 87.32861328 C43.25694841 89.70884841 45.24552732 92.14685354 47.2265625 94.59765625 C50.65865662 98.82559828 54.17246476 102.97258328 57.7265625 107.09765625 C61.46694386 111.44657756 65.18972486 115.80725717 68.8515625 120.22265625 C69.55539063 121.07085937 70.25921875 121.9190625 70.984375 122.79296875 C72.54151869 124.85286735 73.6153428 126.78327483 74.7265625 129.09765625 C62.86696916 129.26726747 51.17094755 128.80943323 39.3515625 127.84765625 C38.51540405 127.78107819 37.67924561 127.71450012 36.81774902 127.64590454 C2.26383927 124.87994579 -32.08744916 120.73544989 -65.8984375 112.91015625 C-66.94789551 112.67248535 -67.99735352 112.43481445 -69.07861328 112.18994141 C-70.49376221 111.84455322 -70.49376221 111.84455322 -71.9375 111.4921875 C-72.75686035 111.29471924 -73.5762207 111.09725098 -74.42041016 110.89379883 C-75.33765869 110.49970825 -75.33765869 110.49970825 -76.2734375 110.09765625 C-78.14394548 104.4861323 -77.47082727 98.34853491 -77.4609375 92.47265625 C-77.46000092 91.76792175 -77.45906433 91.06318726 -77.45809937 90.33709717 C-77.38404768 64.75315166 -74.52685076 41.04206503 -56.13671875 21.703125 C-41.44673013 8.33583659 -19.86367453 -0.09833502 0 0 Z " fill="#12273F" transform="translate(141.2734375,380.90234375)"/>
<path d="M0 0 C1.45016988 2.25478027 2.49744584 4.25630289 3.5625 6.6875 C4.25618823 8.16865439 4.95435489 9.64771704 5.65625 11.125 C6.03136719 11.9190625 6.40648437 12.713125 6.79296875 13.53125 C8.89631621 17.83324222 11.23973585 22.00116284 13.5625 26.1875 C18.35647197 34.88402512 22.96298787 43.66782873 27.5 52.5 C32.34414474 61.92776276 37.29461786 71.28351539 42.41503906 80.56494141 C49.1936991 92.9099859 55.57224042 105.46983657 62 118 C62.66 118 63.32 118 64 118 C64.19335938 118.59167969 64.38671875 119.18335938 64.5859375 119.79296875 C64.97652344 120.97826172 64.97652344 120.97826172 65.375 122.1875 C65.63023437 122.96480469 65.88546875 123.74210937 66.1484375 124.54296875 C67.02210796 127.06378857 68.00185211 129.52625081 69 132 C64.47922138 132.05834421 59.95854047 132.09371252 55.4375 132.125 C54.16068359 132.14175781 52.88386719 132.15851563 51.56835938 132.17578125 C36.38198447 132.25467151 36.38198447 132.25467151 31.734375 127.85546875 C30.75210938 126.53482422 30.75210938 126.53482422 29.75 125.1875 C28.99203125 124.20136719 28.2340625 123.21523438 27.453125 122.19921875 C27.05673828 121.67634277 26.66035156 121.1534668 26.25195312 120.61474609 C24.0941472 117.83164774 21.79106087 115.1735013 19.5 112.5 C16.14380386 108.55500767 12.82773549 104.58352237 9.5625 100.5625 C5.51393204 95.58583072 1.35454021 90.71160337 -2.83959961 85.85766602 C-3.79274448 84.7529098 -4.7417668 83.64457934 -5.68603516 82.53222656 C-6.90458874 81.11125996 -8.15990405 79.72204432 -9.41796875 78.3359375 C-11 76 -11 76 -10.82373047 74.09716797 C-9.79112213 71.46820957 -8.42130261 70.08064192 -6.40234375 68.109375 C-5.75515381 67.46967773 -5.10796387 66.82998047 -4.44116211 66.17089844 C-3.61495361 65.37200195 -2.78874512 64.57310547 -1.9375 63.75 C0.681875 61.1925 3.30125 58.635 6 56 C-1.92 55.67 -9.84 55.34 -18 55 C-18.99 37.18 -19.98 19.36 -21 1 C-17.78518345 -0.07160552 -14.999995 -0.35469148 -11.625 -0.625 C-9.94277344 -0.76808594 -9.94277344 -0.76808594 -8.2265625 -0.9140625 C-2.60848407 -1.06369655 -2.60848407 -1.06369655 0 0 Z " fill="#44728C" transform="translate(181,379)"/>
<path d="M0 0 C13.39329623 13.18628459 13.39329623 13.18628459 14.296875 20.35546875 C13.53732492 22.87269562 12.40952218 24.77592983 11 27 C10.11864384 28.58234176 9.23770801 30.16492264 8.36083984 31.74975586 C7.64120964 33.03701239 6.91181773 34.31884555 6.17431641 35.59594727 C1.88641642 43.03750157 -2.01806222 50.67323964 -5.9375 58.3125 C-6.64310291 59.68638373 -7.34875062 61.06024444 -8.05444336 62.43408203 C-9.089819 64.44989766 -10.12514674 66.46573738 -11.16001892 68.48181152 C-14.20619809 74.41205995 -17.30148546 80.31553614 -20.41821289 86.20898438 C-22.57783963 90.29434977 -24.72357265 94.38632884 -26.8515625 98.48828125 C-32.03174271 108.47213101 -37.26194457 118.42543469 -42.625 128.3125 C-43.38852783 129.72752808 -43.38852783 129.72752808 -44.16748047 131.17114258 C-44.64072754 132.03892334 -45.11397461 132.9067041 -45.6015625 133.80078125 C-46.01744629 134.56559814 -46.43333008 135.33041504 -46.86181641 136.1184082 C-48 138 -48 138 -50 140 C-50.12625501 134.57591941 -49.74589192 129.73668637 -48.6875 124.38671875 C-48.41394529 122.95900683 -48.14051159 121.53127172 -47.8671875 120.10351562 C-47.435854 117.8981886 -47.0012052 115.69356849 -46.56347656 113.48950195 C-42.77569104 98.65427592 -42.77569104 98.65427592 -46.15234375 84.66015625 C-47.53099609 83.37431641 -47.53099609 83.37431641 -48.9375 82.0625 C-53.78664066 77.43160477 -53.78664066 77.43160477 -55.0234375 74.9296875 C-54.9885776 72.05955578 -53.67035292 71.06919484 -51.6875 69.0625 C-47.93226332 65.06300261 -47.93226332 65.06300261 -46 60 C-46.24242083 56.6281466 -46.68090777 55.3173195 -49.109375 52.90234375 C-49.98078125 52.25394531 -50.8521875 51.60554688 -51.75 50.9375 C-52.61109375 50.28652344 -53.4721875 49.63554687 -54.359375 48.96484375 C-55.23078125 48.31644531 -56.1021875 47.66804688 -57 47 C-58.7074998 45.71937515 -60.38583167 44.39642979 -62 43 C-62 42.34 -62 41.68 -62 41 C-60.45071411 39.73928833 -60.45071411 39.73928833 -58.24658203 38.30126953 C-57.4237674 37.75955109 -56.60095276 37.21783264 -55.75320435 36.65969849 C-54.84722504 36.07332611 -53.94124573 35.48695374 -53.0078125 34.8828125 C-51.60690872 33.96421951 -51.60690872 33.96421951 -50.17770386 33.02706909 C-47.16437173 31.05314712 -44.14489202 29.08886797 -41.125 27.125 C-39.15712434 25.83919607 -37.18967141 24.55274492 -35.22265625 23.265625 C-32.30999522 21.35985473 -29.39702151 19.45458694 -26.48223877 17.55206299 C-17.61447202 11.76152607 -8.79876103 5.89471613 0 0 Z " fill="#B2ECFE" transform="translate(319,359)"/>
<path d="M0 0 C4.54889212 0.53233961 7.65252366 2.48824404 11.3203125 5.05859375 C11.92889603 5.47503143 12.53747955 5.89146912 13.164505 6.32052612 C15.1564373 7.68558695 17.14055142 9.0615883 19.125 10.4375 C21.20202312 11.86421351 23.28105596 13.28796588 25.3601532 14.71165466 C26.78032947 15.68446984 28.19984919 16.65824416 29.61872864 17.63294983 C36.84605198 22.59485354 44.13583519 27.46094054 51.4375 32.3125 C52.61544615 33.09619912 53.79334469 33.87996981 54.97119141 34.66381836 C57.64673103 36.44364799 60.32295693 38.22243287 63 40 C61.20299995 43.95371199 58.97841591 45.91222747 55.5625 48.625 C54.59441406 49.40101563 53.62632812 50.17703125 52.62890625 50.9765625 C50.80125361 52.38328474 48.91898681 53.72067546 47 55 C47.52999213 61.49240361 49.11782147 66.51812404 54.25 70.9375 C54.8275 71.288125 55.405 71.63875 56 72 C54.21214426 77.73560657 50.26253285 80.92330768 46.01953125 84.98828125 C43.37523723 88.93170618 44.2271541 91.57512512 45 96 C45.10896103 96.66232132 45.21792206 97.32464264 45.33018494 98.0070343 C45.67532213 100.0596525 46.04078371 102.10786172 46.41015625 104.15625 C46.68062624 105.68875134 46.95079957 107.22130505 47.22070312 108.75390625 C47.64120568 111.13061713 48.06374233 113.50689961 48.49145508 115.88232422 C48.90805069 118.20174845 49.31596772 120.52257093 49.72265625 122.84375 C49.85076187 123.54294556 49.97886749 124.24214111 50.1108551 124.96252441 C50.93278316 129.70368443 51.11007905 134.18749207 51 139 C48.48941397 135.86423712 46.66776679 132.61585177 44.84765625 129.0390625 C44.55181641 128.46128052 44.25597656 127.88349854 43.95117188 127.28820801 C43.31625069 126.04805263 42.68284237 124.80712174 42.05081177 123.56549072 C40.36608507 120.25763116 38.66841112 116.95645578 36.96875 113.65625 C36.45792625 112.66433151 36.45792625 112.66433151 35.93678284 111.65237427 C33.06599128 106.0944859 30.08909024 100.59959075 27.0625 95.125 C21.84536849 85.67312026 16.8946454 76.09567136 11.96932983 66.48989868 C7.54655919 57.86882008 3.04442803 49.30358391 -1.625 40.8125 C-2.57825133 39.07168376 -3.53138349 37.33080225 -4.484375 35.58984375 C-5.69180414 33.38452059 -6.90024671 31.17996503 -8.11914062 28.98095703 C-9.0532088 27.28740035 -9.96527594 25.58175707 -10.875 23.875 C-11.58269531 22.57175781 -11.58269531 22.57175781 -12.3046875 21.2421875 C-13 19 -13 19 -12.20605469 17.08935547 C-11.03713835 15.06433806 -9.79046203 13.20573949 -8.3984375 11.328125 C-7.90859375 10.66425781 -7.41875 10.00039063 -6.9140625 9.31640625 C-6.40617188 8.63449219 -5.89828125 7.95257813 -5.375 7.25 C-4.859375 6.55261719 -4.34375 5.85523438 -3.8125 5.13671875 C-2.54440881 3.42244733 -1.2725711 1.71094844 0 0 Z " fill="#B2ECFE" transform="translate(193,360)"/>
<path d="M0 0 C1.86151795 1.3727395 3.71192931 2.7570825 5.55078125 4.16015625 C7.27220639 5.45328423 9.02277455 6.70807469 10.79296875 7.93359375 C13.4130816 9.82938767 15.78213324 11.6449456 18 14 C18.56357342 19.44787638 16.28408191 22.77760898 13 27 C11.70317626 28.36886951 10.38176866 29.7169291 9 31 C10.72502308 36.36463221 14.04416706 39.16385158 18.1015625 42.9140625 C22.41413603 49.92421288 19.78561448 59.88683005 18.390625 67.63671875 C18.22254333 68.60100296 18.05446167 69.56528717 17.88128662 70.55879211 C17.52618974 72.57885314 17.16629305 74.59807593 16.80175781 76.61645508 C16.2499745 79.68764191 15.72184458 82.76228633 15.1953125 85.83789062 C14.84517002 87.8127523 14.49365426 89.78737108 14.140625 91.76171875 C13.98627991 92.67024094 13.83193481 93.57876312 13.6729126 94.51481628 C12.60394581 100.29766799 10.85821817 104.85378641 8 110 C3.38 110 -1.24 110 -6 110 C-10.24397968 103.17038387 -12.15972827 97.24998024 -13.4921875 89.359375 C-13.68724884 88.27416565 -13.88231018 87.1889563 -14.08328247 86.07086182 C-14.48912174 83.79308663 -14.88703086 81.51388548 -15.27734375 79.23339844 C-15.87620477 75.7429781 -16.50249828 72.2583007 -17.1328125 68.7734375 C-17.52505658 66.55236866 -17.9157367 64.33102292 -18.3046875 62.109375 C-18.49102753 61.06972595 -18.67736755 60.0300769 -18.86935425 58.95892334 C-19.03347809 57.98731262 -19.19760193 57.0157019 -19.36669922 56.01464844 C-19.51372284 55.16465271 -19.66074646 54.31465698 -19.81222534 53.43890381 C-20.13148307 49.29223735 -19.60772873 46.76114753 -17.00390625 43.5 C-16.19824219 42.675 -15.39257812 41.85 -14.5625 41 C-11.43827513 37.7905234 -9.39921712 35.28175732 -8 31 C-8.7425 30.319375 -9.485 29.63875 -10.25 28.9375 C-13.74153885 25.42606634 -16.46214972 21.56643522 -17.49609375 16.6328125 C-16.73227044 12.57913605 -13.85003585 10.79130204 -10.75 8.375 C-10.16347656 7.89804687 -9.57695312 7.42109375 -8.97265625 6.9296875 C-6.03295169 4.55149954 -3.04311711 2.2446755 0 0 Z " fill="#0A1F27" transform="translate(256,401)"/>
<path d="M0 0 C0.24857661 4.57113264 0.42922838 9.13828498 0.54931641 13.71459961 C0.59939063 15.26803117 0.66748156 16.82099631 0.75439453 18.37280273 C1.45577863 31.2246349 1.45577863 31.2246349 -2.05517578 35.50634766 C-4.62802638 37.33540439 -7.12652889 38.70311646 -10 40 C-11.09570312 40.62390625 -12.19140625 41.2478125 -13.3203125 41.890625 C-31.72897151 50.8129277 -50.87343904 54.63657084 -71 48 C-80.23846705 44.36476456 -88.49099672 39.50108337 -96 33 C-96.86625 32.360625 -97.7325 31.72125 -98.625 31.0625 C-104.59193767 25.88068571 -109.19845047 19.51348324 -113.875 13.1875 C-114.36371582 12.52903076 -114.85243164 11.87056152 -115.35595703 11.19213867 C-117.33108371 8.48616643 -118.93393244 6.19820268 -120 3 C-119.34 3 -118.68 3 -118 3 C-118 3.66 -118 4.32 -118 5 C-117.48050781 5.23332031 -116.96101562 5.46664063 -116.42578125 5.70703125 C-113.83857368 7.08604205 -111.48038282 8.70073818 -109.078125 10.37670898 C-91.13172829 22.81914234 -72.65368452 29.58744656 -50.3671875 26.49609375 C-32.19176046 23.00081932 -16.81337003 13.5665095 -2.94140625 1.6171875 C-1 0 -1 0 0 0 Z " fill="#E8AC6B" transform="translate(318,316)"/>
<path d="M0 0 C0 3.60028475 -0.9765223 5.24396011 -2.640625 8.42578125 C-3.20990723 9.51987305 -3.77918945 10.61396484 -4.36572266 11.74121094 C-4.99359954 12.93175433 -5.62169801 14.12218089 -6.25 15.3125 C-6.89795625 16.55093284 -7.54557596 17.7895418 -8.19287109 19.02832031 C-12.37390817 27.00923838 -16.67894538 34.91804889 -21.03613281 42.80395508 C-26.22150451 52.26751113 -31.09675664 61.88845142 -36 71.5 C-41.60966891 82.49168963 -47.22261707 93.47411925 -53.125 104.3125 C-53.60324219 105.19421875 -54.08148438 106.0759375 -54.57421875 106.984375 C-57.74063355 112.74063355 -57.74063355 112.74063355 -60 115 C-60.12625501 109.57591941 -59.74589192 104.73668637 -58.6875 99.38671875 C-58.41394529 97.95900683 -58.14051159 96.53127172 -57.8671875 95.10351562 C-57.435854 92.8981886 -57.0012052 90.69356849 -56.56347656 88.48950195 C-52.77569104 73.65427592 -52.77569104 73.65427592 -56.15234375 59.66015625 C-57.07144531 58.80292969 -57.99054688 57.94570313 -58.9375 57.0625 C-63.79041756 52.42799786 -63.79041756 52.42799786 -65.01953125 49.91796875 C-64.99075763 47.09239905 -63.73209877 46.19986952 -61.75 44.25 C-58.09007534 40.36361294 -56.54252598 37.08126206 -55 32 C-49.28959433 36.17235944 -43.82782078 40.58926797 -38.41796875 45.14453125 C-36.06378014 47.16022056 -36.06378014 47.16022056 -33 48 C-32.78859375 47.34128906 -32.5771875 46.68257813 -32.359375 46.00390625 C-30.50482676 41.90578096 -27.92484188 38.53814289 -25.25 34.9375 C-24.07801315 33.33957775 -22.90749545 31.74057714 -21.73828125 30.140625 C-21.12807129 29.30595703 -20.51786133 28.47128906 -19.88916016 27.61132812 C-16.0753408 22.33960264 -12.37705884 16.98613651 -8.67089844 11.63842773 C-5.89764537 7.65116898 -3.10400236 3.74149918 0 0 Z " fill="#88BED3" transform="translate(329,384)"/>
<path d="M0 0 C4.62555436 4.25378083 8.02168116 9.07856037 11.5625 14.25 C12.7991472 16.03668815 14.03613272 17.82314217 15.2734375 19.609375 C15.8931543 20.50720703 16.51287109 21.40503906 17.15136719 22.33007812 C19.97218501 26.40409604 22.82778894 30.45323066 25.6875 34.5 C26.18000244 35.19899414 26.67250488 35.89798828 27.17993164 36.61816406 C27.64004639 37.27010742 28.10016113 37.92205078 28.57421875 38.59375 C28.99622559 39.191875 29.41823242 39.79 29.85302734 40.40625 C30.81439385 41.74209516 31.81845942 43.04706963 32.83203125 44.34375 C34 46 34 46 34 48 C39.69279347 45.15360326 43.95560477 41.49253414 48.5703125 37.12109375 C50.92700242 35.06372618 53.27280097 33.51888487 56 32 C56.23074219 32.66386719 56.46148437 33.32773437 56.69921875 34.01171875 C58.74135921 39.54083423 60.66061198 42.90168909 65 47 C65 51.94838777 63.77629217 52.93689465 60.625 56.625 C59.81289062 57.58664062 59.00078125 58.54828125 58.1640625 59.5390625 C56.82080225 61.06659672 55.43835129 62.56164871 54 64 C54.21682537 66.73255329 54.5382088 69.30806535 55 72 C55.10893585 72.66362549 55.2178717 73.32725098 55.33010864 74.01098633 C55.67577305 76.06218309 56.0410168 78.10915437 56.41015625 80.15625 C56.68062624 81.68875134 56.95079957 83.22130505 57.22070312 84.75390625 C57.64120568 87.13061713 58.06374233 89.50689961 58.49145508 91.88232422 C58.90805069 94.20174845 59.31596772 96.52257093 59.72265625 98.84375 C59.85076187 99.54294556 59.97886749 100.24214111 60.1108551 100.96252441 C60.93278316 105.70368443 61.11007905 110.18749207 61 115 C58.48941397 111.86423712 56.66776679 108.61585177 54.84765625 105.0390625 C54.55181641 104.46128052 54.25597656 103.88349854 53.95117188 103.28820801 C53.31625069 102.04805263 52.68284237 100.80712174 52.05081177 99.56549072 C50.36608507 96.25763116 48.66841112 92.95645578 46.96875 89.65625 C46.45792625 88.66433151 46.45792625 88.66433151 45.93678284 87.65237427 C43.06599128 82.0944859 40.08909024 76.59959075 37.0625 71.125 C32.20929251 62.33244159 27.58305963 53.43509052 23 44.5 C12.61025678 23.97916602 12.61025678 23.97916602 1.17578125 4.0390625 C0 2 0 2 0 0 Z " fill="#88BED3" transform="translate(183,384)"/>
<path d="M0 0 C5.57142857 5.14285714 5.57142857 5.14285714 6 9 C5.34 9 4.68 9 4 9 C0 2.25 0 2.25 0 0 Z " fill="#82B8CD" transform="translate(183,384)"/>
</svg>
